/* XPM */
static char *l06us_kfasu[] = {
/* columns rows colors chars-per-pixel */
"50 64 183 2 ",
"   c None",
".  c #000000",
"X  c #010101",
"o  c #020202",
"O  c #030303",
"+  c #040404",
"@  c #050505",
"#  c #060606",
"$  c #070707",
"%  c #080808",
"&  c #090909",
"*  c #0A0A0A",
"=  c #0B0B0B",
"-  c #0C0C0C",
";  c #0D0D0D",
":  c #0E0E0E",
">  c #0F0F0F",
",  c #111111",
"<  c #121212",
"1  c #131313",
"2  c #151515",
"3  c #171717",
"4  c #181818",
"5  c #191919",
"6  c #1A1A1A",
"7  c #1B1B1B",
"8  c #1C1C1C",
"9  c #1D1D1D",
"0  c #1E1E1E",
"q  c #202020",
"w  c #212121",
"e  c #222222",
"r  c #232323",
"t  c #252525",
"y  c #262626",
"u  c #272727",
"i  c #282828",
"p  c #2A2A2A",
"a  c #2D2D2D",
"s  c #2E2E2E",
"d  c #303030",
"f  c #323232",
"g  c #333333",
"h  c #373737",
"j  c #383838",
"k  c #3A3A3A",
"l  c gray23",
"z  c #3E3E3E",
"x  c #404040",
"c  c #414141",
"v  c #434343",
"b  c #444444",
"n  c #464646",
"m  c #494949",
"M  c #4A4A4A",
"N  c #4C4C4C",
"B  c #4D4D4D",
"V  c #4E4E4E",
"C  c #505050",
"Z  c #525252",
"A  c #545454",
"S  c #575757",
"D  c #595959",
"F  c #5A5A5A",
"G  c #5B5B5B",
"H  c #5C5C5C",
"J  c #606060",
"K  c #616161",
"L  c #626262",
"P  c #646464",
"I  c #656565",
"U  c #686868",
"Y  c #696969",
"T  c #6A6A6A",
"R  c #6B6B6B",
"E  c #6C6C6C",
"W  c #6D6D6D",
"Q  c #6F6F6F",
"!  c #717171",
"~  c #727272",
"^  c #737373",
"/  c #747474",
"(  c #757575",
")  c #767676",
"_  c #777777",
"`  c #787878",
"'  c #797979",
"]  c gray48",
"[  c #7B7B7B",
"{  c #7C7C7C",
"}  c #7D7D7D",
"|  c #7E7E7E",
" . c #818181",
".. c #848484",
"X. c #858585",
"o. c #878787",
"O. c #8A8A8A",
"+. c #8C8C8C",
"@. c #8D8D8D",
"#. c #8F8F8F",
"$. c #909090",
"%. c #939393",
"&. c #959595",
"*. c #969696",
"=. c #979797",
"-. c #989898",
";. c #999999",
":. c #9A9A9A",
">. c #9B9B9B",
",. c #9C9C9C",
"<. c #9D9D9D",
"1. c #9E9E9E",
"2. c #A1A1A1",
"3. c #A2A2A2",
"4. c #A3A3A3",
"5. c #A5A5A5",
"6. c #A6A6A6",
"7. c #AAAAAA",
"8. c #ABABAB",
"9. c #ACACAC",
"0. c #AFAFAF",
"q. c #B2B2B2",
"w. c #B3B3B3",
"e. c #B4B4B4",
"r. c #B5B5B5",
"t. c #B6B6B6",
"y. c #B9B9B9",
"u. c #BABABA",
"i. c #BBBBBB",
"p. c #BEBEBE",
"a. c #C0C0C0",
"s. c #C1C1C1",
"d. c #C3C3C3",
"f. c #C5C5C5",
"g. c #C7C7C7",
"h. c #C8C8C8",
"j. c #CACACA",
"k. c #CBCBCB",
"l. c #CDCDCD",
"z. c #CECECE",
"x. c #CFCFCF",
"c. c #D0D0D0",
"v. c #D2D2D2",
"b. c #D3D3D3",
"n. c #D6D6D6",
"m. c #D9D9D9",
"M. c #DADADA",
"N. c #DBDBDB",
"B. c #DCDCDC",
"V. c #DDDDDD",
"C. c #DEDEDE",
"Z. c #DFDFDF",
"A. c #E0E0E0",
"S. c #E1E1E1",
"D. c #E2E2E2",
"F. c #E3E3E3",
"G. c #E4E4E4",
"H. c #E5E5E5",
"J. c #E6E6E6",
"K. c #E7E7E7",
"L. c #E8E8E8",
"P. c #E9E9E9",
"I. c #EAEAEA",
"U. c #EBEBEB",
"Y. c #ECECEC",
"T. c #EDEDED",
"R. c #EEEEEE",
"E. c #EFEFEF",
"W. c #F0F0F0",
"Q. c #F2F2F2",
"!. c #F3F3F3",
"~. c #F4F4F4",
"^. c #F5F5F5",
"/. c #F6F6F6",
"(. c #F7F7F7",
"). c #F8F8F8",
"_. c #F9F9F9",
"`. c #FAFAFA",
"'. c #FBFBFB",
"]. c #FCFCFC",
"[. c #FDFDFD",
"{. c #FEFEFE",
"}. c #FFFFFF",
/* pixels */
"                                                                                                    ",
"                                                                                                    ",
"                                                                                                    ",
"                                                                                                    ",
"                                                                                                    ",
"                                                                                                    ",
"                                                                                                    ",
"                                                                                                    ",
"                                                                                                    ",
"                                                                                                    ",
"                                                                                                    ",
"                                                                                                    ",
"                                                                                                    ",
"                                                                                                    ",
"                                                                                                    ",
"                                              . a i .                                               ",
"                                              O ,.&.+                                               ",
"                                            . 0 C.F.r                                               ",
"                                            . V ).'.G .                                             ",
"                                      . . . # ] }.}...9 q 7 @                                       ",
"                                . X 5 c Q -.t.S.}.}.E.Z.V.l.4.R f %                                 ",
"                            . < B <.n.).'.Y.m.J.}.}.I.K./.}.}.}.G.5.m @                             ",
"                        . < E g._.}.N.6.^ N q L '.{.] j ' =.y.A.{.}.R.#.t .                         ",
"                      . g r.[.{.a._ l       . 8 M./.k         N #.n.}.}.x.Z +                       ",
"                    X Z B.}.^.&.e             X E a.8             v *.Y.}.Y.! &                     ",
"                  O S L.}.Q.O.                . @ 4 o                 J V.}.~.F .                   ",
"                  w n.}.~.o.                                            G I.}.M.f                   ",
"                = =.].'.+.                                                $.{.}.q.<                 ",
"                r D.}.p.9                                                 n F.}.(.C                 ",
"              . Y ^.].R                                                     8.}.}.7.#               ",
"      . 2 x I %.C.}._.;.[ F 9 o                                     O : 3 s 1.}.}.R.{ V s 1 O       ",
"    ; } k.!.{.}.}.}.}.}.}.`.p.q .                                 6 ( u.n.P.].}.}.}.}.`.L.x.>.y     ",
"    % K <.2.2.3.Z.}.J.6.2.@.m $ .                                 @ t S ` 1.u.].}./.0.2.3.>.' 7     ",
"      . . . . . 2.}.n.0 . . .                                         . . . M _.}.D.r . . . .       ",
"              . Y [.].{                                                     | {.}.r.>               ",
"                e M.}.C.b                                                 c M.}.}.#.                ",
"                o ' [.}.8.r                                             I j.}.}.E.D                 ",
"                  9 l.}.).$.                                            N.}.}./.O.                  ",
"                  . D !.}.(.>.d               * A W a               q.P.}.}.U.Q                     ",
"                    - X./.}.[.s.T             t H.}.3.            v.!.}.}.~.) o                     ",
"                      < U c.[.}.~.l.9.      . y T.}.d.        z.W.}.}.{.b.Y                         ",
"                          e P w.T.}.}.W.v.6.Q ` ^.}.v.H _ t.Q.}.}.~.h./ u                           ",
"                            . = h [ i.I.}.}.}.{.}.}.{.^.~.P.v.9.{ v 3                               ",
"                                  . = s P :.f.U.}.}.e.P z p 1 + .                                   ",
"                                        . X ,  .}.}.~ . . .                                         ",
"                                            . ! }.}.!                                               ",
"                                            . E }.Q.v                                               ",
"                                              r  .I %                                               ",
"                                                . .                                                 ",
"                                                                                                    ",
"                                                                                                    ",
"                                                                                                    ",
"                                                                                                    ",
"                                                                                                    ",
"                                                                                                    ",
"                                                                                                    ",
"                                                                                                    ",
"                                                                                                    ",
"                                                                                                    ",
"                                                                                                    ",
"                                                                                                    ",
"                                                                                                    ",
"                                                                                                    ",
"                                                                                                    "
};
