/* XPM */
static char *w5c85_frdjk[] = {
/* columns rows colors chars-per-pixel */
"80 80 198 2 ",
"   c None",
".  c #FF5400",
"X  c #FE5500",
"o  c #FF5500",
"O  c #FE5600",
"+  c #FF5600",
"@  c #FF5700",
"#  c #FF5900",
"$  c #FF5F00",
"%  c #FF5C07",
"&  c #FF6400",
"*  c #FE6500",
"=  c #FF6800",
"-  c #FF6A00",
";  c #FF6B00",
":  c #FF6C00",
">  c #FF6C0C",
",  c #FF7000",
"<  c #FF7500",
"1  c #FF7600",
"2  c #FF7800",
"3  c #FF7901",
"4  c #FF7B00",
"5  c #FE7F00",
"6  c #FF7F00",
"7  c #FF7F05",
"8  c #FF7108",
"9  c #FE8000",
"0  c #FF8000",
"q  c #FF8100",
"w  c #FF8300",
"e  c #FF8201",
"r  c #FF8500",
"t  c #FF8700",
"y  c #FF8407",
"u  c #FE8900",
"i  c #FF8801",
"p  c #FE8A00",
"a  c #FF8A00",
"s  c #FF8B00",
"d  c #FE8F00",
"f  c #FF8F00",
"g  c #FF8C02",
"h  c #FF8B08",
"j  c #FE9000",
"k  c #FF9000",
"l  c #FF9100",
"z  c #FF9001",
"x  c #FF9200",
"c  c #FF9103",
"v  c #FF9503",
"b  c #FF9602",
"n  c #FF9205",
"m  c #FF9307",
"M  c #FF9606",
"N  c #FE9800",
"B  c #FF9800",
"V  c #FF9D07",
"C  c #FF9308",
"Z  c #FF9409",
"A  c #FF940B",
"S  c #FF8316",
"D  c #FF8C18",
"F  c #FF9712",
"G  c #FF9914",
"H  c #FF9916",
"J  c #FE9917",
"K  c #FF9619",
"L  c #FF9B19",
"P  c #FF9E1C",
"I  c #FFA015",
"U  c #FFA614",
"Y  c #FFA31F",
"T  c #FFA41C",
"R  c #FF8E24",
"E  c #FF9B20",
"W  c #FF9A22",
"Q  c #FF9E21",
"!  c #FE8031",
"~  c #FF9A3B",
"^  c #FFA421",
"/  c #FFAA27",
"(  c #FEA42F",
")  c #FFA92A",
"_  c #FFAE2A",
"`  c #FFAF2C",
"'  c #FFB22F",
"]  c #FFA333",
"[  c #FFA532",
"{  c #FFA737",
"}  c #FFAF37",
"|  c #FFA13E",
" . c #FFA93C",
".. c #FFAA3D",
"X. c #FFB235",
"o. c #FFB53A",
"O. c #FFA940",
"+. c #FFAF41",
"@. c #FFAF4B",
"#. c #FFB340",
"$. c #FFB545",
"%. c #FFB646",
"&. c #FFB747",
"*. c #FFB04C",
"=. c #FFB74D",
"-. c #FFB84C",
";. c #FFB94C",
":. c #FFBA4C",
">. c #FFBB4C",
",. c #FFBE4E",
"<. c #FFB250",
"1. c #FFB251",
"2. c #FFB354",
"3. c #FFB65B",
"4. c #FFB55D",
"5. c #FFB75C",
"6. c #FFBA58",
"7. c #FFB765",
"8. c #FFB960",
"9. c #FFB861",
"0. c #FFBC65",
"q. c #FFB36B",
"w. c #FFB86D",
"e. c #FFBF6E",
"r. c #FFC059",
"t. c #FFC45B",
"y. c #FFC35F",
"u. c #FFC660",
"i. c #FFC761",
"p. c #FFC665",
"a. c #FFC968",
"s. c #FFCA6C",
"d. c #FFCB6D",
"f. c #FFC072",
"g. c #FFC276",
"h. c #FFCE71",
"j. c #FFCE72",
"k. c #FFC479",
"l. c #FFC67D",
"z. c #FFC67F",
"x. c #FFC77F",
"c. c #FFD078",
"v. c #FFD27C",
"b. c #FFD37D",
"n. c #FFD37E",
"m. c #FFD47F",
"M. c #FFC780",
"N. c #FFC881",
"B. c #FFC882",
"V. c #FEC883",
"C. c #FEC884",
"Z. c #FFC884",
"A. c #FFC984",
"S. c #FFC985",
"D. c #FFCD8E",
"F. c #FFD198",
"G. c #FFD199",
"H. c #FFD39C",
"J. c #FFD49C",
"K. c #FFD5A0",
"L. c #FFD7A5",
"P. c #FFD7A6",
"I. c #FFD9AA",
"U. c #FFDAAB",
"Y. c #FFDBAE",
"T. c #FFDDB2",
"R. c #FFDEB4",
"E. c #FFE1BB",
"W. c #FFE2BC",
"Q. c #FFE2BD",
"!. c #FFE3C2",
"~. c #FFE4C2",
"^. c #FFE4C3",
"/. c #FFE5C4",
"(. c #FFE5C5",
"). c #FFE7C9",
"_. c #FFEFDC",
"`. c #FFF0DD",
"'. c #FFF1E0",
"]. c #FFF1E2",
"[. c #FFF3E5",
"{. c #FFF5EA",
"}. c #FFF5EB",
"|. c #FFF7ED",
" X c #FFF7EE",
".X c #FFF8F0",
"XX c #FFF9F1",
"oX c #FFF8F2",
"OX c #FFF9F2",
"+X c #FFF9F3",
"@X c #FFFAF3",
"#X c #FFFAF4",
"$X c #FFFAF5",
"%X c #FFFBF5",
"&X c #FFFBF6",
"*X c #FFFCF8",
"=X c #FFFDF9",
"-X c #FFFDFB",
/* pixels */
"                                                                                                                                                                ",
"                                                                                                                                                                ",
"                                                                                                                                                                ",
"                                                                                                                                                                ",
"                                                                                                                                                                ",
"                                                                                                                                                                ",
"                                                                                                                                                                ",
"                                                                                                                                                                ",
"                                                                                                                                                                ",
"                                                                                                                                                                ",
"                                                                                                                                                                ",
"                                                      5                                                                                                         ",
"                                                                                                                                                                ",
"                                              p   s         9                                                                                                   ",
"                                            J V c l   6   l                                                                                                     ",
"                                            K P M -.} l x       6 6 6                                                                                           ",
"                                          y 6.c.p.;.Z a 0 0 0 6 0 0                                                                                             ",
"                                        _ X.n.v.=.>.B B B B B                                                                                                   ",
"                                        ` m.m.m.m.d.s.&.%.^ ) b N                                                                                               ",
"                                        ' b.n.i.j.h.y.r.#.$.l                                                                                                   ",
"                                          E t.u.:.o.T m s t t q                                                                                                 ",
"                                            a ,.a.Y x q w s r                                                                                                   ",
"                                              v / +.I i 0 0                                                                                                     ",
"                                              l   U u B       6                                                                                                 ",
"                                                                                                                                                                ",
"                                                                                                                                                                ",
"                                                                                                                                                                ",
"                                                                                                                                                                ",
"                                                                                                                                                                ",
"                                                                                                                                                                ",
"                                                                                                                                                                ",
"                                                                                                                                                                ",
"                                                                                                                                                                ",
"                                                                                                                                                                ",
"                                                                                                                                                                ",
"                                                                                                                                                                ",
"                                                                                                                                                                ",
"                                                                                                                                                                ",
"                                                                                                                                                                ",
"                                                                                                                                                                ",
"                                                                                                                                                                ",
"                                                                                                                                                                ",
"                                                                                                                                                                ",
"                                                                                                                                                                ",
"                                                                                                                                                                ",
"                                                                                                                                                                ",
"                                                                                                                                                                ",
"                                                                                                                                                                ",
"                                          V.V.B.                                                                                                                ",
"                                        0.7.  q.                                                                                                                ",
"                                  d d f k 4 - o                                                                                                                 ",
"                                f Q 8.*.2.] h 7 > #     .                                                                                                       ",
"                              d k e.K.(.U.z.S.w.~ < $                                                                                                           ",
"                              H *.^.+XoXW.R.F.<.G 3 1 + %                                                                                                       ",
"                            ( 5.L.E._.[.{.].I.Z.f.4.S * !                                                                                                       ",
"                            8.T.T.).XX=X X[.[.}.~.1.F 3 2 +   V.                                                                                                ",
"                            8.G.T.(.&X-X*XOX|.).H.U.9.e ; O                                                                                                     ",
"                            ..M.T.!.[.@X%XXX/.k.g.O.| , +                                                                                                       ",
"                              @.Y.`.$X.X.X#XP.A.L e : X                                                                                                         ",
"                              z { Q.'..XD.x.l.3.g @                                                                                                             ",
"                                j [ z.J.N. .W D 8 = O                                                                                                           ",
"                                    C A n s & #                                                                                                                 ",
"                                        C.R 2 o o                                                                                                               ",
"                                            A.A.                                                                                                                ",
"                                                                                                                                                                ",
"                                                                                                                                                                ",
"                                                                                                                                                                ",
"                                                                                                                                                                ",
"                                                                                                                                                                ",
"                                                                                                                                                                ",
"                                                                                                                                                                ",
"                                                                                                                                                                ",
"                                                                                                                                                                ",
"                                                                                                                                                                ",
"                                                                                                                                                                ",
"                                                                                                                                                                ",
"                                                                                                                                                                ",
"                                                                                                                                                                ",
"                                                                                                                                                                ",
"                                                                                                                                                                "
};
